<svg width="14" height="14" viewBox="0 0 14 14" fill="none" xmlns="http://www.w3.org/2000/svg">
<rect width="14" height="14" rx="7" fill="#D9D9D9"/>
<path d="M9.26838 4.12553C9.43575 3.95816 9.70711 3.95816 9.87447 4.12553C10.0418 4.29289 10.0418 4.56425 9.87447 4.73162L7.60609 7L9.87447 9.26838C10.0418 9.43575 10.0418 9.70711 9.87447 9.87447C9.70711 10.0418 9.43575 10.0418 9.26838 9.87447L7 7.60609L4.73162 9.87447C4.56425 10.0418 4.29289 10.0418 4.12553 9.87447C3.95816 9.70711 3.95816 9.43575 4.12553 9.26838L6.39391 7L4.12553 4.73162C3.95816 4.56425 3.95816 4.29289 4.12553 4.12553C4.29289 3.95816 4.56425 3.95816 4.73162 4.12553L7 6.39391L9.26838 4.12553Z" fill="white"/>
</svg>
