<svg width="15" height="18" viewBox="0 0 15 18" fill="none" xmlns="http://www.w3.org/2000/svg">
<path d="M2.8077 17.4423C2.31058 17.4423 1.88502 17.2653 1.53102 16.9113C1.17701 16.5573 1 16.1317 1 15.6346V2.94231H0.75C0.5375 2.94231 0.359375 2.87041 0.215625 2.72659C0.071875 2.58279 0 2.40459 0 2.19199C0 1.97941 0.071875 1.80132 0.215625 1.65774C0.359375 1.51414 0.5375 1.44234 0.75 1.44234H4.49997C4.49997 1.19747 4.58619 0.988823 4.75863 0.81639C4.93106 0.643956 5.13971 0.557739 5.38457 0.557739H9.61538C9.86024 0.557739 10.0689 0.643956 10.2413 0.81639C10.4138 0.988823 10.5 1.19747 10.5 1.44234H14.25C14.4625 1.44234 14.6406 1.51425 14.7843 1.65806C14.9281 1.80188 15 1.98008 15 2.19266C15 2.40526 14.9281 2.58336 14.7843 2.72694C14.6406 2.87052 14.4625 2.94231 14.25 2.94231H14V15.6346C14 16.1317 13.8229 16.5573 13.4689 16.9113C13.1149 17.2653 12.6894 17.4423 12.1922 17.4423H2.8077ZM4.90385 13.9423H6.40382V4.94231H4.90385V13.9423ZM8.59613 13.9423H10.0961V4.94231H8.59613V13.9423Z" fill="#999999"/>
</svg>
