<svg width="12" height="12" viewBox="0 0 12 12" fill="none" xmlns="http://www.w3.org/2000/svg">
<path d="M5.93793 2.5611L7.11724 3.71773L1.65517 9.1704V10.3477H2.81379L8.29655 4.87435L9.47586 6.03098L3.9931 11.5043C3.84138 11.6558 3.66552 11.7762 3.46552 11.8657C3.26552 11.9552 3.05517 12 2.83448 12H0.827586C0.593103 12 0.396552 11.9208 0.237931 11.7625C0.0793102 11.6041 0 11.4079 0 11.1738V9.1704C0 8.95009 0.0413797 8.7401 0.124138 8.54045C0.206897 8.34079 0.324138 8.16523 0.475862 8.01377L5.93793 2.5611ZM9.47586 6.03098L5.93793 2.5611L8.0069 0.495697C8.33793 0.165232 8.73448 0 9.19655 0C9.65862 0 10.0483 0.165232 10.3655 0.495697L11.5241 1.67298C11.8414 1.98967 12 2.37522 12 2.8296C12 3.28399 11.8414 3.66954 11.5241 3.98623L9.47586 6.03098Z" fill="white"/>
</svg>
