<svg width="15" height="16" viewBox="0 0 15 16" fill="none" xmlns="http://www.w3.org/2000/svg">
<path d="M12.2377 11.6236V12.995C12.2377 13.0898 12.272 13.1716 12.3406 13.2402C12.4092 13.3088 12.4909 13.3431 12.5858 13.3431C12.6806 13.3431 12.7624 13.3088 12.831 13.2402C12.8996 13.1716 12.9339 13.0898 12.9339 12.995V10.7927C12.9339 10.6978 12.8983 10.6148 12.8272 10.5437C12.7561 10.4725 12.6731 10.4369 12.5782 10.4369H10.3759C10.2811 10.4369 10.1993 10.4713 10.1307 10.5399C10.0621 10.6085 10.0278 10.6902 10.0278 10.7851C10.0278 10.8799 10.0621 10.9617 10.1307 11.0303C10.1993 11.0989 10.2811 11.1332 10.3759 11.1332H11.7472L9.89458 12.9859C9.82596 13.0545 9.79039 13.135 9.78787 13.2273C9.78534 13.3196 9.82091 13.4026 9.89458 13.4763C9.9632 13.5449 10.0449 13.5792 10.1398 13.5792C10.2346 13.5792 10.3164 13.5449 10.385 13.4763L12.2377 11.6236ZM1.42282 13.8804C1.03028 13.8804 0.695017 13.7414 0.417018 13.4634C0.139006 13.1854 0 12.8501 0 12.4576V1.92282C0 1.53028 0.139006 1.19502 0.417018 0.917018C0.695017 0.639006 1.03028 0.5 1.42282 0.5H11.9576C12.3501 0.5 12.6854 0.639006 12.9634 0.917018C13.2414 1.19502 13.3804 1.53028 13.3804 1.92282V6.9011C13.1867 6.81836 12.9927 6.74824 12.7984 6.69073C12.6042 6.63321 12.4047 6.5873 12.1998 6.55299V1.92282C12.1998 1.86226 12.1746 1.80675 12.1241 1.75629C12.0737 1.70584 12.0182 1.68061 11.9576 1.68061H1.42282C1.36226 1.68061 1.30675 1.70584 1.25629 1.75629C1.20584 1.80675 1.18061 1.86226 1.18061 1.92282V12.4576C1.18061 12.5182 1.20584 12.5737 1.25629 12.6241C1.30675 12.6746 1.36226 12.6998 1.42282 12.6998H6.03331C6.06257 12.9178 6.10595 13.1239 6.16348 13.3181C6.22099 13.5124 6.29112 13.6998 6.37387 13.8804H1.42282ZM1.18061 12.6998V1.68061V6.55299V6.49396V12.6998ZM2.95157 10.2477C2.95157 10.4152 3.00808 10.5555 3.12109 10.6685C3.23411 10.7815 3.37436 10.838 3.54187 10.838H6.11354C6.14784 10.6332 6.1988 10.4337 6.26641 10.2394C6.33402 10.0452 6.40768 9.85118 6.4874 9.65744H3.54187C3.37436 9.65744 3.23411 9.71394 3.12109 9.82696C3.00808 9.93997 2.95157 10.0802 2.95157 10.2477ZM2.95157 7.19022C2.95157 7.35772 3.00808 7.49798 3.12109 7.61099C3.23411 7.724 3.37436 7.78051 3.54187 7.78051H7.94202C8.28107 7.49294 8.64281 7.25202 9.02725 7.05777C9.4117 6.86353 9.8234 6.72554 10.2623 6.6438C10.1746 6.62261 10.0762 6.61 9.96719 6.60596C9.85822 6.60193 9.75984 6.59992 9.67205 6.59992H3.54187C3.37436 6.59992 3.23411 6.65643 3.12109 6.76944C3.00808 6.88245 2.95157 7.02271 2.95157 7.19022ZM2.95157 4.1327C2.95157 4.30021 3.00808 4.44046 3.12109 4.55348C3.23411 4.66649 3.37436 4.72299 3.54187 4.72299H9.83856C10.0061 4.72299 10.1463 4.66649 10.2593 4.55348C10.3723 4.44046 10.4289 4.30021 10.4289 4.1327C10.4289 3.9652 10.3723 3.82494 10.2593 3.71192C10.1463 3.5989 10.0061 3.54239 9.83856 3.54239H3.54187C3.37436 3.54239 3.23411 3.5989 3.12109 3.71192C3.00808 3.82494 2.95157 3.9652 2.95157 4.1327ZM11.4127 15.5C10.4299 15.5 9.59388 15.1554 8.90466 14.4662C8.21546 13.777 7.87086 12.941 7.87086 11.9581C7.87086 10.9753 8.21546 10.1393 8.90466 9.45008C9.59388 8.76088 10.4299 8.41628 11.4127 8.41628C12.3956 8.41628 13.2316 8.76088 13.9208 9.45008C14.61 10.1393 14.9546 10.9753 14.9546 11.9581C14.9546 12.941 14.61 13.777 13.9208 14.4662C13.2316 15.1554 12.3956 15.5 11.4127 15.5Z" fill="#5944DB"/>
</svg>
