<svg width="9" height="16" viewBox="0 0 9 16" fill="none" xmlns="http://www.w3.org/2000/svg">
<path d="M0.855291 0.420947C0.742666 0.553514 0.653312 0.710979 0.592347 0.884328C0.531381 1.05768 0.5 1.2435 0.5 1.43118C0.5 1.61885 0.531381 1.80468 0.592347 1.97802C0.653312 2.15137 0.742666 2.30884 0.855291 2.44141L5.56911 8.00125L0.855291 13.5611C0.628132 13.829 0.500514 14.1924 0.500514 14.5713C0.500514 14.9502 0.628132 15.3136 0.855291 15.5816C1.08245 15.8495 1.39055 16 1.7118 16C2.03305 16 2.34114 15.8495 2.5683 15.5816L8.14471 9.00431C8.25734 8.87175 8.34669 8.71428 8.40765 8.54093C8.46862 8.36758 8.5 8.18176 8.5 7.99408C8.5 7.80641 8.46862 7.62058 8.40765 7.44724C8.34669 7.27389 8.25734 7.11642 8.14471 6.98385L2.5683 0.406617C2.10664 -0.137904 1.3291 -0.137904 0.855291 0.420947Z" fill="#A9A9A9" fill-opacity="0.73"/>
</svg>
