<svg width="9" height="16" viewBox="0 0 9 16" fill="none" xmlns="http://www.w3.org/2000/svg">
<path d="M8.14471 0.420946C8.25733 0.553514 8.34669 0.710979 8.40765 0.884328C8.46862 1.05768 8.5 1.2435 8.5 1.43118C8.5 1.61885 8.46862 1.80468 8.40765 1.97802C8.34669 2.15137 8.25733 2.30884 8.14471 2.44141L3.43089 8.00125L8.14471 13.5611C8.37187 13.829 8.49949 14.1924 8.49949 14.5713C8.49949 14.9502 8.37187 15.3136 8.14471 15.5816C7.91755 15.8495 7.60945 16 7.2882 16C6.96695 16 6.65886 15.8495 6.4317 15.5816L0.85529 9.00431C0.742664 8.87175 0.653311 8.71428 0.592345 8.54093C0.53138 8.36758 0.5 8.18176 0.5 7.99408C0.5 7.80641 0.53138 7.62058 0.592345 7.44724C0.653311 7.27389 0.742664 7.11642 0.85529 6.98385L6.4317 0.406617C6.89336 -0.137904 7.6709 -0.137904 8.14471 0.420946Z" fill="#A9A9A9" fill-opacity="0.73"/>
</svg>
